<?xml version="1.0" encoding="utf-8"?>
<!-- Generator: Adobe Illustrator 16.0.0, SVG Export Plug-In . SVG Version: 6.00 Build 0)  -->
<!DOCTYPE svg PUBLIC "-//W3C//DTD SVG 1.1//EN" "http://www.w3.org/Graphics/SVG/1.1/DTD/svg11.dtd">
<svg version="1.1" id="Calque_1" xmlns="http://www.w3.org/2000/svg" xmlns:xlink="http://www.w3.org/1999/xlink" x="0px" y="0px"
	 width="810.301px" height="249px" viewBox="0 0 810.301 249" enable-background="new 0 0 810.301 249" xml:space="preserve">
<g>
	<g>
		<path d="M738.2,204.7h-2.5v-4.4h2.5V204.7z"/>
		<path d="M760.001,199.4c-2,3.6-5,5.399-9.101,5.399c-2.7,0-5.1-1-7-2.899c-2-1.9-3-4.2-3-6.9s0.9-5,2.9-7c2-1.9,4.399-3,7.1-3
			c2,0,3.8,0.5,5.5,1.5c1.601,1,2.8,2.3,3.5,3.8l0.4,0.8h-2.8c-1.4-2.399-3.5-3.6-6.4-3.699c-1.9,0-3.6,0.699-5.2,2.1
			c-1.6,1.5-2.399,3.3-2.399,5.3s0.8,3.8,2.199,5.3c1.5,1.4,3.2,2.2,5.301,2.101c2.899,0,5.1-1.2,6.5-3.5h2.8L760.001,199.4z"/>
		<path d="M777.9,202c-1.899,1.9-4.3,2.9-7,2.8c-2.6-0.1-4.8-1.1-6.6-3c-1.8-1.899-2.7-4.2-2.7-6.8c0-2.7,1-5.1,2.9-7
			c1.899-2,4.3-2.9,7-2.8c2.6,0.1,4.8,1.1,6.6,3c1.8,1.899,2.7,4.2,2.7,6.8C780.9,197.7,779.9,200.1,777.9,202z M771.001,202.4
			c2.1,0.1,3.8-0.601,5.3-2.101s2.2-3.3,2.1-5.399c-0.1-2-0.8-3.601-2.1-5.101s-3-2.1-4.9-2.1c-2,0-3.7,0.7-5.1,2.1
			c-1.4,1.4-2.101,3.101-2.101,5.101s0.601,3.699,1.9,5.199S769.001,202.3,771.001,202.4z"/>
		<path d="M810.301,204.4H807.7v-11.5c0-1.4-0.399-2.7-1.199-3.7c-0.801-1-1.9-1.5-3.301-1.5c-1.399,0-2.6,0.5-3.6,1.3
			c-1,0.9-1.5,2-1.5,3.3V204.4h-2.6V192.3c0-1.3-0.5-2.5-1.5-3.3c-1-0.9-2.2-1.3-3.5-1.3c-1.301,0-2.4,0.5-3.301,1.5
			c-0.8,1-1.199,2.2-1.199,3.7v11.5H783.4v-11.2c0-2.3,0.7-4.2,2-5.601c1.2-1.3,2.9-2.1,4.9-2.3c2.7-0.2,4.899,1,6.5,3.5
			c1.6-2.5,3.8-3.7,6.5-3.5c2,0.2,3.7,0.9,5,2.3c1.3,1.4,2,3.301,2,5.601V204.4L810.301,204.4z"/>
	</g>
	<path d="M48.6,204.3h-9.4L0,108.7h10.2L44,192.6L77.9,108.7H88L48.6,204.3z"/>
	<path d="M103.7,204.3h-9.3v-70.7h9.3V204.3z"/>
	<path d="M123.6,204.3h-9.4v-95.7h9.4V204.3z"/>
	<path d="M143.7,204.3h-9.4v-95.7h9.4V204.3z"/>
	<rect x="94.4" y="108.7" fill="#E30613" width="9.3" height="16.5"/>
	<g>
		<g>
			<path d="M314.7,89.1c-17.4-18.7-38.9-28.2-64-29.1c-26-1-48.5,8.2-67.1,27.2c-18.7,18.7-28.2,41.5-28.2,67.8
				c0,25.3,8.5,47.2,26,65.5c17.399,18.4,39,27.9,64,28.5c26,1,48.399-8.2,67.1-26.9c19-19,28.5-41.5,28.5-67.399
				C341,129.3,332.1,107.4,314.7,89.1z M264.1,177l-0.4,44.2l-25-35.7l-42.6,12.8l26-35.5L197,126.4L237.1,140l32.3-45l-1.5,55.4
				l38.6,13.1L264.1,177z"/>
		</g>
	</g>
	<polygon points="362.4,76.4 359.6,75.6 359.4,76.5 356.9,75.8 357,75.2 352.9,74.1 352.3,76.4 351.3,76.1 351.6,74.9 350.3,74.6 
		349.9,76.3 348.7,76 348.9,75.2 347,74.7 347.4,73.3 345,72.7 344.6,74.1 344.4,74.1 344.2,74.7 342,74.2 342.1,73.8 341.2,73.6 
		341.4,73 340.5,72.8 340.9,70.9 338.7,70.3 338.4,71.5 337.2,71.2 336.9,72.7 335.8,72.4 336.4,70.2 335.3,70 336.6,65 336.2,64.9 
		336.5,63.7 335.3,63.4 335,64.6 334,64.4 333.6,66 331.9,65.6 328,64.6 329.5,58.7 327.9,56.1 326.7,55.8 326.8,55.4 324.3,54.8 
		324.2,55.1 322.3,54.6 322.4,54.2 321.9,54.1 321.8,54.5 321,54.3 320.1,58 318.5,57.6 317.8,60.2 313.7,59.1 317.2,45.1 
		319.4,36.9 316.8,33.9 318.5,23.7 315.2,33.4 311.4,34.9 310.6,38.1 306.3,55.1 305.1,59.9 302,59.1 306.2,42.7 304.6,42.3 
		304.8,41.4 300.7,40.3 300.5,41.2 298.9,40.8 294.9,56.7 293.7,54.7 292.9,54.5 298.5,32.6 297.8,32.4 297.9,32 296.2,31.6 
		296.1,32 294.4,31.5 294.5,31.1 291.2,30.3 291.1,30.7 290.4,30.5 283.5,57.9 282.6,55.7 290.6,24.2 290.1,24 290.3,23.4 
		286.9,22.5 286.7,23.2 283.7,22.4 283.9,21.7 280.7,20.9 280.5,21.6 279.8,21.4 272.4,50.6 271.1,50.3 276.1,30.6 274.7,30.2 
		274.8,29.9 270.6,28.9 270.6,29.2 269.2,28.8 265.7,42.5 265,42.3 266.3,37.2 266,37.1 266.1,36.7 263.4,36 263.3,36.4 262.9,36.3 
		260.8,44.7 260.5,44.7 263.7,32.4 262.7,32.2 263.2,30.4 259.4,29.4 256.5,31.1 254.5,38.9 252.9,38.5 252.4,37.7 255.5,25.8 
		254.9,25.7 254.5,23.8 250.3,22.7 249,24.1 248.4,23.9 245.4,35.5 244.5,35.3 243.7,38.8 243,38.6 240.9,47.2 239,46.8 240,42.8 
		239.1,42.6 239.9,39.7 237.7,39.2 238.9,34.4 238.2,34.2 238.3,33.7 237.2,31.7 237.4,30.6 233.9,29.7 233.6,30.8 232,31.8 
		231.8,32.6 230.9,32.3 226.6,49 226.3,48.9 226,49.8 225.7,49.7 227.8,41.7 227.2,40.9 226.9,38.6 224.8,38.1 223.2,39.6 
		222.5,39.4 219.5,38.6 218.3,43.5 217.2,43.2 216.5,45.8 215.5,45.5 216,43.7 214.8,43.4 215.1,42.2 212.9,41.6 212.4,43.5 
		211.5,43.3 211.4,43.8 210.5,43.6 210.4,43.9 208.2,43.4 208.3,42.7 208.1,42.7 208.5,41.2 206.1,40.6 205.8,42.1 203.8,41.6 
		203.6,42.3 202.5,42 202.9,40.4 201.6,40 201.3,41.2 200.2,41 200.8,38.7 196.7,37.6 196.5,38.3 194,37.6 194.2,36.8 192.2,36.3 
		188.7,103.1 193.9,103.3 201.8,105.4 244.2,115.8 269.7,87.4 315.2,145.2 	"/>
	
		<rect x="311.816" y="37.005" transform="matrix(-0.9701 -0.2425 0.2425 -0.9701 606.47 149.9699)" fill="#FFED00" width="1.301" height="1.3"/>
	
		<rect x="280.008" y="23.499" transform="matrix(-0.9705 -0.2411 0.2411 -0.9705 546.7217 115.1921)" fill="#FFED00" width="0.8" height="1.3"/>
	
		<rect x="278.222" y="34.303" transform="matrix(-0.9704 -0.2417 0.2417 -0.9704 540.5382 136.2068)" fill="#FFED00" width="0.8" height="1.3"/>
	<rect x="284.901" y="36.306" transform="matrix(-0.9704 -0.2417 0.2417 -0.9704 553.2146 141.767)" width="0.8" height="1.3"/>
	<rect x="283.302" y="28.107" transform="matrix(-0.9704 -0.2417 0.2417 -0.9704 552.0454 125.2242)" width="0.8" height="1.3"/>
	<rect x="279.005" y="44.095" transform="matrix(-0.9701 -0.2428 0.2428 -0.9701 539.5834 155.9976)" width="0.8" height="1.3"/>
	
		<rect x="231.306" y="34.199" transform="matrix(-0.9701 -0.2425 0.2425 -0.9701 448.5348 124.9159)" fill="#FFED00" width="1.301" height="1.3"/>
	
		<rect x="313.304" y="49.399" transform="matrix(-0.9699 -0.2434 0.2434 -0.9699 606.2823 175.0153)" fill="#FFED00" width="1.3" height="1.3"/>
	<rect x="314.997" y="42.39" transform="matrix(-0.9701 -0.2425 0.2425 -0.9701 611.4324 161.3498)" width="1.301" height="1.3"/>
	<rect x="233.008" y="42.081" transform="matrix(-0.9697 -0.2445 0.2445 -0.9697 449.7797 141.2894)" width="1.3" height="1.3"/>
	<rect x="309.723" y="45.785" transform="matrix(-0.9703 -0.242 0.242 -0.9703 600.2811 166.6025)" width="1.299" height="1.3"/>
	<rect x="309.791" y="55.191" transform="matrix(-0.9699 -0.2434 0.2434 -0.9699 597.9509 185.5693)" width="1.3" height="1.3"/>
	<g>
		<path fill="#FFED00" d="M301.6,42.6c0.3,2.5,0.5,2.6,2.399,2.6c-1.899,0.3-2,0.4-1.899,2.9c-0.301-2.5-0.5-2.6-2.4-2.6
			C301.6,45.2,301.7,45.1,301.6,42.6z"/>
	</g>
	<g>
		<g>
			<path d="M234.1,45.5V45l-0.4-0.2l-4.1-6.7l0.1-1.6h-0.6l-2.2-6.9h0.5V29c0,0,0,0-0.601,0c-0.6-1.2-2.3-22.2-2.3-22.2l0.3-0.1
				l0.101-0.5h-0.5V5.6c0,0,0,0,0.5,0C224.8,4.4,224,4.2,224,4.2L223.8,0h-0.6c0,0,0,3.2,0,4.1c-0.7,0.3-0.7,1.4-0.7,1.4h0.5v0.6
				H222.6l0.1,0.5c0,0,0,0,0.2,0.1c0.3,4-0.4,22.3-0.4,22.3l-0.7,0.1v0.7c0,0,0,0,0.601,0c-0.101,0.6-1.601,7-1.601,7h-0.6l0.1,1.5
				L217.1,45l-0.7,0.2v0.6h3.5c0,0-0.2-1.5,0.1-2c0.9-2.2,2.2-3.5,5.4-3.6c3.2-0.1,4.3,2.3,4.6,3c0.4,0.7,0.2,2.3,0.2,2.3H234.1z
				 M222.6,36.9l0.8-5.7h2.3l1.1,5.6L222.6,36.9z"/>
		</g>
	</g>
	<g>
		<path fill="#FFED00" d="M222.7,23.8c0.2,1.3,0.2,1.4,1.3,1.4c-1,0.2-1.1,0.2-1,1.6c-0.2-1.3-0.2-1.4-1.3-1.4
			C222.7,25.3,222.7,25.2,222.7,23.8z"/>
	</g>
	<g>
		<path fill="#FFED00" d="M225.1,18.7c0.199,1.3,0.199,1.4,1.3,1.4c-1,0.2-1.101,0.2-1,1.6c-0.2-1.3-0.2-1.4-1.3-1.4
			C225.1,20.1,225.1,20,225.1,18.7z"/>
	</g>
	<g>
		<path fill="#FFED00" d="M222.8,14.9c0.2,1.3,0.2,1.4,1.301,1.4c-1,0.2-1.101,0.2-1,1.6c-0.2-1.3-0.2-1.4-1.301-1.4
			C222.8,16.3,222.8,16.2,222.8,14.9z"/>
	</g>
	<g>
		<path fill="#FFED00" d="M224.7,8.7c0.2,1.3,0.2,1.4,1.3,1.4c-1,0.2-1.1,0.2-1,1.6c-0.2-1.3-0.2-1.4-1.3-1.4
			C224.7,10.2,224.7,10.1,224.7,8.7z"/>
	</g>
</g>
<g>
	<g>
		<path fill="#E30613" d="M353.6,203.5v-93.9h14.6l34.2,79.9l34-79.9h14.601v93.9h-9.4v-83.6L406.3,203.5h-8.1L363,119.9v83.6H353.6
			z"/>
		<path fill="#E30613" d="M535.7,171.9h-62.899c0.399,7.6,3.8,13.899,10.2,18.8c5,3.899,10.6,5.8,16.899,5.8
			c7.7,0,14.2-2.8,19.4-8.4c2.1-2.199,3.7-4.699,4.8-7.5h9.8c-1.8,5.4-5.2,10.5-10.2,15.2c-6.6,6.2-14.5,9.3-23.6,9.3
			c-10.7,0-19.6-3.8-26.7-11.3c-6.7-7-10-15.5-10-25.399c0-10.5,3.7-19.301,11.2-26.301c6.9-6.5,15.2-9.8,24.9-9.8
			c10.1,0,18.6,3.5,25.699,10.4c2.301,2.3,4.2,4.8,5.801,7.6C534.1,155.9,535.7,163.1,535.7,171.9z M473.1,163.4h53.2
			c-2.2-9.601-7.2-16.2-15.101-19.801c-3.6-1.699-7.5-2.5-11.8-2.5c-8.6,0-15.5,3.301-20.7,9.9
			C475.9,154.5,474.001,158.6,473.1,163.4z"/>
		<path fill="#E30613" d="M617.1,109.7V203.6h-9.4V191c-5.7,8.1-12.7,12.7-21.1,13.8c-1.7,0.3-3.5,0.4-5.3,0.4
			c-11.3,0-20.601-3.8-27.9-11.4c-6.6-6.899-9.9-15.2-9.9-24.899c0-10.801,3.9-19.801,11.601-26.801
			C562,135.7,570.5,132.4,580.5,132.4c11.2,0,20.301,4.199,27.301,12.699V109.7H617.1z M580.2,141c-8.3,0-15.199,3.1-20.6,9.4
			c-4.4,5.199-6.6,11.199-6.6,18c0,8.8,3.199,16,9.699,21.5c5.2,4.399,11.4,6.6,18.4,6.6c8,0,14.8-3.1,20.2-9.4
			c4.6-5.3,6.899-11.5,6.899-18.5c0-8.3-3.199-15.199-9.5-20.699C593.301,143.3,587.2,141,580.2,141z"/>
		<path d="M630.6,125.7v-16h9.4v16H630.6z"/>
		<path fill="#E30613" d="M724.2,134v69.5h-9.399v-12.2c-5.601,7.5-12.101,11.9-19.4,13.2c-2.3,0.4-4.7,0.6-7.4,0.6
			c-11.399,0-20.699-3.899-27.8-11.699c-6.3-6.7-9.399-14.9-9.399-24.5c0-11,3.899-20.101,11.6-27.2c6.9-6.3,15.2-9.4,25-9.4
			c11.1,0,19.9,4.2,26.4,12.601l1,1.399V134H724.2z M687.6,141c-8.3,0-15.2,3.1-20.6,9.4c-3.5,3.899-5.601,8.399-6.301,13.6
			c-0.3,1.4-0.399,2.9-0.399,4.3c0,8.9,3.2,16.101,9.7,21.601c5.199,4.399,11.199,6.6,18.199,6.6c8.301,0,15.101-3.2,20.301-9.7
			c4.199-5.2,6.3-11.3,6.3-18.399c0-8.601-3.2-15.7-9.5-21.101C700.2,143.1,694.4,141,687.6,141z"/>
	</g>
	<rect x="630.6" y="135" fill="#E30613" width="9.4" height="69.5"/>
	<circle cx="580.4" cy="168.9" r="8.1"/>
	<circle cx="688.4" cy="168.9" r="8.1"/>
</g>
</svg>
