<?xml version="1.0" encoding="utf-8"?>
<!-- Generator: Adobe Illustrator 16.0.0, SVG Export Plug-In . SVG Version: 6.00 Build 0)  -->
<!DOCTYPE svg PUBLIC "-//W3C//DTD SVG 1.1//EN" "http://www.w3.org/Graphics/SVG/1.1/DTD/svg11.dtd">
<svg version="1.1" id="Calque_1" xmlns="http://www.w3.org/2000/svg" xmlns:xlink="http://www.w3.org/1999/xlink" x="0px" y="0px"
	 width="841.9px" height="297.6px" viewBox="0 0 841.9 297.6" enable-background="new 0 0 841.9 297.6" xml:space="preserve">
<g>
	<g>
		<path fill="#1D1D1B" d="M754.294,227.513h-2.496v-4.367h2.496V227.513z"/>
		<path fill="#1D1D1B" d="M776.131,222.226c-1.97,3.645-5.023,5.418-9.128,5.385c-2.726-0.031-5.058-0.984-7.027-2.855
			c-1.971-1.873-2.955-4.172-2.988-6.863c-0.033-2.727,0.92-5.023,2.89-6.961c2.003-1.938,4.367-2.957,7.126-2.988
			c1.97-0.033,3.809,0.492,5.517,1.543c1.608,1.018,2.791,2.266,3.48,3.809l0.361,0.82h-2.824c-1.412-2.396-3.546-3.645-6.437-3.709
			c-1.937-0.033-3.645,0.656-5.188,2.102c-1.609,1.477-2.397,3.25-2.397,5.285c0,2.037,0.755,3.777,2.233,5.254
			c1.478,1.445,3.25,2.168,5.286,2.135c2.923-0.033,5.09-1.215,6.535-3.514h2.823L776.131,222.226z"/>
		<path fill="#1D1D1B" d="M793.999,224.82c-1.938,1.938-4.269,2.891-6.961,2.791c-2.595-0.064-4.827-1.051-6.634-2.955
			c-1.806-1.904-2.692-4.17-2.692-6.797c0-2.725,0.985-5.09,2.923-7.027c1.937-1.971,4.269-2.922,6.961-2.824
			c2.595,0.1,4.827,1.084,6.633,3.021c1.807,1.904,2.726,4.17,2.726,6.797C796.954,220.519,795.969,222.851,793.999,224.82z
			 M787.07,225.148c2.069,0.1,3.81-0.59,5.254-2.133c1.478-1.545,2.167-3.316,2.135-5.387c-0.065-1.969-0.788-3.645-2.135-5.057
			s-2.955-2.102-4.859-2.102c-2.003-0.033-3.678,0.689-5.09,2.102s-2.102,3.088-2.135,5.09c-0.032,1.971,0.591,3.711,1.938,5.189
			C783.524,224.327,785.133,225.083,787.07,225.148z"/>
		<path fill="#1D1D1B" d="M826.413,227.185h-2.594v-11.494c0-1.443-0.427-2.691-1.248-3.709c-0.82-1.02-1.938-1.545-3.283-1.545
			c-1.379,0-2.562,0.461-3.579,1.348c-0.985,0.887-1.478,2.002-1.478,3.35v12.051h-2.627v-12.051c0-1.348-0.493-2.463-1.511-3.35
			c-0.985-0.887-2.167-1.348-3.547-1.348c-1.346,0-2.43,0.525-3.251,1.545c-0.82,1.018-1.215,2.232-1.215,3.709v11.494h-2.594
			v-11.197c0-2.332,0.656-4.236,2.003-5.648c1.248-1.346,2.89-2.102,4.926-2.266c2.726-0.23,4.893,0.951,6.502,3.48
			c1.608-2.529,3.776-3.711,6.501-3.48c2.036,0.164,3.678,0.92,4.959,2.266c1.346,1.412,2.035,3.316,2.035,5.648V227.185z"/>
	</g>
	<path fill="#1D1D1B" d="M64.746,228.138h-9.432L16.103,132.47h10.175l33.751,83.88l33.874-83.88h10.052L64.746,228.138z"/>
	<path fill="#1D1D1B" d="M119.841,228.138h-9.307v-70.727h9.307V228.138z"/>
	<path fill="#1D1D1B" d="M139.695,228.138h-9.431V132.47h9.431V228.138z"/>
	<path fill="#1D1D1B" d="M159.795,228.138h-9.43V132.47h9.43V228.138z"/>
	<rect x="110.534" y="132.47" fill="#E20613" width="9.307" height="16.505"/>
	<g>
		<g>
			<path fill="#1D1D1B" d="M330.778,112.845c-17.414-18.684-38.946-28.182-63.961-29.132c-25.966-0.952-48.453,8.231-67.137,27.235
				c-18.685,18.683-28.183,41.484-28.183,67.769c0,25.33,8.548,47.18,25.967,65.549c17.419,18.366,38.95,27.866,63.966,28.497
				c25.969,0.951,48.449-8.234,67.133-26.917c19.003-18.998,28.501-41.484,28.501-67.447
				C357.064,153.064,348.198,131.217,330.778,112.845z M280.162,200.763l-0.387,44.18l-24.953-35.695l-42.615,12.834l25.958-35.529
				l-25.125-36.406l40.128,13.578l32.284-45l-1.482,55.423l38.635,13.07L280.162,200.763z"/>
		</g>
	</g>
	<path fill-rule="evenodd" clip-rule="evenodd" fill="#FFFFFF" d="M344.091,162.226c0,0,18.363,42.238-15.609,70.701
		C344.005,209.724,347.762,199.872,344.091,162.226z"/>
	<polygon fill-rule="evenodd" clip-rule="evenodd" fill="#1D1D1B" points="378.48,100.174 375.714,99.421 375.491,100.278 
		372.972,99.633 373.15,98.942 369.028,97.884 368.436,100.203 367.387,99.933 367.698,98.724 366.423,98.4 365.999,100.066 
		364.851,99.772 365.045,99.022 363.083,98.521 363.459,97.055 361.098,96.455 360.726,97.92 360.499,97.858 360.328,98.511 
		358.104,97.942 358.199,97.582 357.313,97.356 357.457,96.801 356.575,96.575 357.052,94.714 354.793,94.135 354.492,95.31 
		353.347,95.018 352.979,96.466 351.932,96.197 352.484,94.03 351.404,93.756 352.665,88.823 352.274,88.724 352.596,87.46 
		351.387,87.147 351.062,88.415 350.114,88.173 349.697,89.813 347.963,89.369 344.087,88.378 345.587,82.514 344.018,79.867 
		342.831,79.568 342.923,79.208 340.443,78.573 340.351,78.932 338.391,78.428 338.499,78.006 337.975,77.871 337.868,78.299 
		337.114,78.103 336.161,81.827 334.557,81.415 333.9,83.985 329.764,82.926 333.349,68.928 335.462,60.669 332.923,57.73 
		334.63,47.492 331.284,57.232 327.545,58.713 326.745,61.842 322.392,78.844 321.158,83.668 318.145,82.898 322.344,66.493 
		320.677,66.067 320.914,65.15 316.846,64.113 316.614,65.023 315.018,64.615 310.968,80.443 309.821,78.517 309.005,78.306 
		314.615,56.385 313.879,56.192 313.975,55.814 312.291,55.382 312.192,55.764 310.532,55.338 310.634,54.93 307.318,54.087 
		307.25,54.509 306.511,54.319 299.6,81.661 298.68,79.452 306.749,47.962 306.222,47.829 306.385,47.198 302.996,46.332 
		302.827,46.995 299.833,46.22 300.017,45.503 296.795,44.678 296.612,45.395 295.947,45.227 288.473,74.416 287.155,74.077 
		292.203,54.361 290.781,53.996 290.854,53.702 286.736,52.647 286.663,52.94 285.266,52.583 281.76,66.283 281.106,66.115 
		282.431,60.941 282.127,60.864 282.221,60.495 279.497,59.798 279.394,60.189 279.036,60.085 276.881,68.505 276.646,68.446 
		279.782,56.192 278.831,55.947 279.282,54.183 275.484,53.212 272.615,54.912 270.616,62.703 268.977,62.279 268.512,61.5 
		271.559,49.594 271.024,49.45 270.619,47.556 266.417,46.471 265.097,47.845 264.52,47.69 261.543,59.316 260.647,59.089 
		259.754,62.582 259.151,62.429 256.956,71.02 255.087,70.54 256.092,66.621 255.243,66.406 255.977,63.53 253.819,62.978 
		255.038,58.209 254.284,58.017 254.427,57.46 253.261,55.493 253.535,54.415 250.005,53.51 249.718,54.618 248.077,55.592 
		247.882,56.343 246.968,56.11 242.706,72.766 242.378,72.682 242.152,73.563 241.826,73.479 243.864,65.51 243.278,64.667 
		242.989,62.4 240.862,61.855 239.256,63.357 238.602,63.19 235.626,62.432 234.385,67.284 233.303,67.01 232.643,69.588 
		231.594,69.323 232.075,67.459 230.928,67.167 231.23,65.989 228.973,65.411 228.493,67.277 227.611,67.049 227.471,67.605 
		226.589,67.379 226.497,67.737 224.268,67.168 224.438,66.511 224.209,66.456 224.583,64.993 222.228,64.391 221.855,65.85 
		219.895,65.349 219.702,66.103 218.555,65.809 218.981,64.145 217.703,63.817 217.395,65.023 216.347,64.76 216.94,62.439 
		212.822,61.384 212.643,62.079 210.126,61.436 210.344,60.577 208.284,60.049 204.84,126.881 210.03,127.091 217.93,129.22 
		260.316,139.542 285.852,111.223 331.284,168.958 	"/>
	
		<rect x="327.861" y="60.832" transform="matrix(0.9701 0.2427 -0.2427 0.9701 24.7512 -77.8979)" fill="#FFEC00" width="1.344" height="1.348"/>
	
		<rect x="296.111" y="47.322" transform="matrix(0.9705 0.241 -0.241 0.9705 20.3083 -70.0447)" fill="#FFEC00" width="0.758" height="1.349"/>
	
		<rect x="294.295" y="58.123" transform="matrix(0.9704 0.2416 -0.2416 0.9704 22.9377 -69.4578)" fill="#FFEC00" width="0.756" height="1.347"/>
	
		<rect x="300.974" y="60.126" transform="matrix(0.9704 0.2413 -0.2413 0.9704 23.5788 -70.9258)" fill="#FFFFFF" width="0.757" height="1.348"/>
	
		<rect x="299.371" y="51.843" transform="matrix(0.9704 0.2416 -0.2416 0.9704 21.571 -70.8704)" fill="#FFFFFF" width="0.756" height="1.349"/>
	
		<rect x="295.097" y="67.874" transform="matrix(0.97 0.2431 -0.2431 0.97 25.5341 -69.7858)" fill="#FFFFFF" width="0.755" height="1.347"/>
	
		<rect x="247.379" y="57.989" transform="matrix(0.9701 0.2427 -0.2427 0.9701 21.6548 -58.4499)" fill="#FFEC00" width="1.348" height="1.348"/>
	
		<rect x="329.399" y="73.22" transform="matrix(0.9699 0.2434 -0.2434 0.9699 27.9102 -78.1138)" fill="#FFEC00" width="1.348" height="1.346"/>
	
		<rect x="331.114" y="66.151" transform="matrix(0.9701 0.2427 -0.2427 0.9701 26.1392 -78.5286)" fill="#FFFFFF" width="1.344" height="1.348"/>
	
		<rect x="249.114" y="65.874" transform="matrix(0.9696 0.2447 -0.2447 0.9696 23.8842 -59.1116)" fill="#FFFFFF" width="1.349" height="1.344"/>
	
		<rect x="325.82" y="69.609" transform="matrix(0.9703 0.242 -0.242 0.9703 26.7169 -76.9298)" fill="#FFFFFF" width="1.348" height="1.349"/>
	
		<rect x="325.925" y="78.962" transform="matrix(0.9699 0.2434 -0.2434 0.9699 29.2033 -77.0955)" fill="#FFFFFF" width="1.348" height="1.346"/>
	<g>
		<path fill="#FFFFFF" d="M317.753,66.349c0.34,2.479,0.451,2.603,2.402,2.63c-1.922,0.296-2.012,0.437-1.924,2.93
			c-0.34-2.479-0.453-2.604-2.404-2.634C317.751,68.985,317.842,68.848,317.753,66.349z"/>
	</g>
	<g>
		<g>
			<g>
				<path fill="#1D1D1B" d="M250.217,69.261l-0.011-0.47l-0.356-0.229l-4.085-6.661l0.084-1.644l-0.646,0.014l-2.206-6.882
					l0.527-0.011l-0.014-0.647c0,0,0,0-0.59-0.044c-0.613-1.219-2.252-22.206-2.252-22.206l0.323-0.078l0.091-0.547l-0.486-0.021
					l-0.012-0.585c0,0,0,0,0.469-0.012c-0.144-1.229-0.912-1.39-0.912-1.39l-0.264-4.061l-0.554,0.013c0,0-0.046,3.195-0.027,4.079
					c-0.654,0.344-0.738,1.447-0.738,1.447l0.549-0.014l0.012,0.554l-0.44,0.007l0.124,0.55c0,0,0,0,0.224,0.104
					c0.309,3.96-0.391,22.271-0.391,22.271l-0.658,0.127l0.012,0.661c0,0,0,0,0.551-0.014c-0.098,0.556-1.606,6.979-1.606,6.979
					l-0.552,0.014l0.143,1.54l-3.157,6.681l-0.656,0.235l0.014,0.552l3.523-0.003c0,0-0.153-1.522,0.073-2
					c0.889-2.25,2.21-3.513,5.382-3.583c3.168-0.07,4.277,2.313,4.645,3.011c0.369,0.695,0.229,2.345,0.229,2.345L250.217,69.261z
					 M238.752,60.709l0.755-5.717l2.35-0.05l1.121,5.61L238.752,60.709z"/>
			</g>
		</g>
		<g>
			<path fill="#FFFFFF" d="M238.766,47.622c0.187,1.349,0.248,1.417,1.308,1.432c-1.046,0.161-1.094,0.236-1.046,1.593
				c-0.185-1.348-0.246-1.416-1.309-1.432C238.766,49.055,238.816,48.982,238.766,47.622z"/>
		</g>
		<g>
			<path fill="#FFFFFF" d="M241.19,42.461c0.186,1.349,0.248,1.417,1.307,1.432c-1.045,0.161-1.094,0.236-1.045,1.593
				c-0.186-1.348-0.246-1.416-1.31-1.432C241.19,43.894,241.239,43.821,241.19,42.461z"/>
		</g>
		<g>
			<path fill="#FFFFFF" d="M238.859,38.664c0.187,1.348,0.248,1.416,1.308,1.432c-1.046,0.161-1.094,0.236-1.046,1.593
				c-0.185-1.349-0.246-1.417-1.31-1.432C238.859,40.097,238.909,40.024,238.859,38.664z"/>
		</g>
		<g>
			<path fill="#FFFFFF" d="M240.758,32.536c0.187,1.348,0.248,1.416,1.308,1.432c-1.046,0.16-1.094,0.235-1.046,1.593
				c-0.185-1.349-0.246-1.417-1.31-1.433C240.758,33.969,240.807,33.895,240.758,32.536z"/>
		</g>
	</g>
</g>
<g>
	<path fill="#E20613" d="M370.652,226.853V133h14.605l34.163,79.883L453.456,133h14.604v93.853h-9.397v-83.565l-35.306,83.565
		h-8.128l-35.179-83.565v83.565H370.652z"/>
	<path fill="#E20613" d="M552.768,195.23h-62.864c0.422,7.621,3.81,13.887,10.16,18.797c4.994,3.895,10.623,5.842,16.891,5.842
		c7.703,0,14.18-2.794,19.431-8.383c2.115-2.2,3.725-4.698,4.826-7.492h9.779c-1.778,5.42-5.166,10.499-10.16,15.24
		c-6.604,6.182-14.479,9.271-23.622,9.271c-10.668,0-19.559-3.767-26.67-11.303c-6.689-7.026-10.033-15.494-10.033-25.399
		c0-10.498,3.725-19.262,11.176-26.289c6.858-6.52,15.154-9.779,24.893-9.779c10.074,0,18.625,3.473,25.653,10.414
		c2.286,2.285,4.233,4.826,5.843,7.619C551.201,179.272,552.768,186.425,552.768,195.23z M490.158,186.722h53.213
		c-2.203-9.567-7.239-16.172-15.113-19.812c-3.556-1.693-7.493-2.54-11.811-2.54c-8.637,0-15.538,3.302-20.701,9.905
		C492.951,177.831,491.088,181.981,490.158,186.722z"/>
	<path fill="#E20613" d="M634.175,133v93.853h-9.398v-12.572c-5.673,8.128-12.699,12.741-21.082,13.843
		c-1.694,0.254-3.473,0.381-5.334,0.381c-11.261,0-20.573-3.81-27.939-11.43c-6.604-6.858-9.906-15.155-9.906-24.892
		c0-10.838,3.852-19.77,11.557-26.797c6.941-6.434,15.409-9.652,25.4-9.652c11.176,0,20.276,4.234,27.305,12.699V133H634.175z
		 M597.218,164.369c-8.299,0-15.157,3.134-20.574,9.397c-4.403,5.166-6.604,11.176-6.604,18.035c0,8.807,3.216,15.959,9.651,21.463
		c5.249,4.402,11.387,6.604,18.415,6.604c8.043,0,14.773-3.131,20.193-9.398c4.572-5.334,6.857-11.514,6.857-18.541
		c0-8.297-3.175-15.197-9.524-20.701C610.382,166.656,604.244,164.369,597.218,164.369z"/>
	<path d="M647.636,149.002V133h9.398v16.002H647.636z"/>
	<path fill="#E20613" d="M741.235,157.384v69.469h-9.398v-12.191c-5.588,7.451-12.064,11.854-19.431,13.208
		c-2.286,0.423-4.743,0.635-7.366,0.635c-11.43,0-20.701-3.894-27.812-11.685c-6.267-6.687-9.398-14.858-9.398-24.51
		c0-11.006,3.852-20.066,11.557-27.179c6.858-6.265,15.196-9.397,25.02-9.397c11.091,0,19.896,4.19,26.416,12.572l1.016,1.397
		v-12.319H741.235z M704.659,164.369c-8.299,0-15.156,3.134-20.574,9.397c-3.473,3.896-5.588,8.426-6.35,13.59
		c-0.254,1.44-0.381,2.879-0.381,4.317c0,8.89,3.216,16.087,9.651,21.591c5.164,4.402,11.218,6.604,18.161,6.604
		c8.297,0,15.069-3.217,20.32-9.652c4.232-5.163,6.35-11.303,6.35-18.414c0-8.637-3.175-15.664-9.524-21.082
		C717.315,166.487,711.431,164.369,704.659,164.369z"/>
</g>
<rect x="647.636" y="158.384" fill="#E20613" width="9.398" height="69.469"/>
<circle cx="597.422" cy="192.197" r="8.078"/>
<circle cx="705.422" cy="192.197" r="8.078"/>
</svg>
