<?xml version="1.0" encoding="utf-8"?>
<!-- Generator: Adobe Illustrator 16.0.0, SVG Export Plug-In . SVG Version: 6.00 Build 0)  -->
<!DOCTYPE svg PUBLIC "-//W3C//DTD SVG 1.1//EN" "http://www.w3.org/Graphics/SVG/1.1/DTD/svg11.dtd">
<svg version="1.1" id="Calque_1" xmlns="http://www.w3.org/2000/svg" xmlns:xlink="http://www.w3.org/1999/xlink" x="0px" y="0px"
	 width="841.9px" height="297.6px" viewBox="0 0 841.9 297.6" enable-background="new 0 0 841.9 297.6" xml:space="preserve">
<g>
	<g>
		<path fill="#FFFFFF" d="M754.258,229.063h-2.496v-4.367h2.496V229.063z"/>
		<path fill="#FFFFFF" d="M776.094,223.777c-1.97,3.645-5.023,5.418-9.128,5.385c-2.726-0.032-5.058-0.984-7.027-2.856
			c-1.971-1.872-2.955-4.171-2.988-6.863c-0.033-2.726,0.92-5.023,2.89-6.961c2.003-1.938,4.367-2.956,7.126-2.988
			c1.97-0.033,3.809,0.492,5.517,1.543c1.608,1.019,2.791,2.266,3.48,3.81l0.361,0.82h-2.824c-1.412-2.396-3.546-3.645-6.437-3.71
			c-1.937-0.033-3.645,0.656-5.188,2.102c-1.609,1.478-2.397,3.251-2.397,5.286c0,2.036,0.755,3.776,2.233,5.254
			c1.478,1.445,3.25,2.168,5.286,2.135c2.923-0.033,5.09-1.215,6.535-3.514h2.823L776.094,223.777z"/>
		<path fill="#FFFFFF" d="M793.963,226.37c-1.938,1.938-4.269,2.89-6.961,2.791c-2.595-0.065-4.827-1.051-6.634-2.955
			c-1.806-1.904-2.692-4.17-2.692-6.797c0-2.726,0.985-5.09,2.923-7.027c1.937-1.971,4.269-2.923,6.961-2.824
			c2.595,0.099,4.827,1.084,6.633,3.021c1.807,1.904,2.726,4.17,2.726,6.797C796.918,222.069,795.933,224.401,793.963,226.37z
			 M787.034,226.698c2.069,0.099,3.81-0.591,5.254-2.134c1.478-1.544,2.167-3.316,2.135-5.386c-0.065-1.97-0.788-3.645-2.135-5.057
			s-2.955-2.102-4.859-2.102c-2.003-0.033-3.678,0.689-5.09,2.102s-2.102,3.087-2.135,5.09c-0.032,1.97,0.591,3.711,1.938,5.188
			S785.096,226.633,787.034,226.698z"/>
		<path fill="#FFFFFF" d="M826.377,228.735h-2.594v-11.493c0-1.444-0.427-2.692-1.248-3.71c-0.82-1.019-1.938-1.544-3.283-1.544
			c-1.379,0-2.562,0.46-3.579,1.347c-0.985,0.887-1.478,2.003-1.478,3.35v12.051h-2.627v-12.051c0-1.347-0.493-2.463-1.511-3.35
			c-0.985-0.887-2.167-1.347-3.547-1.347c-1.346,0-2.43,0.525-3.251,1.544c-0.82,1.018-1.215,2.232-1.215,3.71v11.493h-2.594
			v-11.197c0-2.331,0.656-4.236,2.003-5.647c1.248-1.347,2.89-2.102,4.926-2.267c2.726-0.229,4.893,0.952,6.502,3.481
			c1.608-2.529,3.776-3.711,6.501-3.481c2.036,0.165,3.678,0.92,4.959,2.267c1.346,1.411,2.035,3.316,2.035,5.647V228.735z"/>
	</g>
	<path fill="#FFFFFF" d="M64.71,228.689h-9.432l-39.211-95.668h10.175l33.751,83.88l33.874-83.88h10.052L64.71,228.689z"/>
	<path fill="#FFFFFF" d="M119.804,228.689h-9.307v-70.727h9.307V228.689z"/>
	<path fill="#FFFFFF" d="M139.659,228.689h-9.431v-95.668h9.431V228.689z"/>
	<path fill="#FFFFFF" d="M159.759,228.689h-9.43v-95.668h9.43V228.689z"/>
	<rect x="110.498" y="133.021" fill="#E20613" width="9.307" height="16.505"/>
	<g>
		<g>
			<path fill="#FFFFFF" d="M330.742,113.396c-17.414-18.684-38.946-28.182-63.961-29.132c-25.966-0.952-48.453,8.231-67.137,27.235
				c-18.685,18.683-28.183,41.483-28.183,67.77c0,25.329,8.548,47.18,25.967,65.549c17.419,18.365,38.95,27.865,63.966,28.497
				c25.969,0.95,48.449-8.235,67.133-26.918c19.003-18.998,28.501-41.484,28.501-67.447
				C357.028,153.615,348.162,131.767,330.742,113.396z M280.126,201.314l-0.387,44.179l-24.953-35.694l-42.615,12.833l25.958-35.528
				l-25.125-36.407l40.128,13.579l32.284-45l-1.482,55.423l38.635,13.071L280.126,201.314z"/>
		</g>
	</g>
	<path fill-rule="evenodd" clip-rule="evenodd" fill="#1D1D1B" d="M344.054,162.777c0,0,18.363,42.237-15.609,70.7
		C343.969,210.274,347.726,200.422,344.054,162.777z"/>
	<polygon fill-rule="evenodd" clip-rule="evenodd" fill="#FFFFFF" points="378.444,100.724 375.677,99.971 375.455,100.828 
		372.936,100.183 373.114,99.492 368.992,98.434 368.4,100.753 367.351,100.484 367.662,99.275 366.386,98.95 365.963,100.616 
		364.815,100.323 365.009,99.573 363.047,99.072 363.423,97.606 361.062,97.005 360.69,98.47 360.463,98.408 360.292,99.062 
		358.068,98.492 358.163,98.132 357.277,97.906 357.421,97.351 356.539,97.125 357.015,95.264 354.757,94.685 354.456,95.861 
		353.311,95.569 352.943,97.016 351.896,96.747 352.448,94.58 351.368,94.306 352.629,89.373 352.238,89.275 352.56,88.01 
		351.351,87.698 351.026,88.965 350.078,88.723 349.661,90.364 347.927,89.919 344.051,88.928 345.551,83.065 343.982,80.417 
		342.795,80.118 342.886,79.758 340.407,79.123 340.315,79.483 338.355,78.979 338.463,78.556 337.939,78.421 337.832,78.849 
		337.078,78.654 336.125,82.377 334.521,81.965 333.864,84.535 329.728,83.476 333.313,69.479 335.426,61.219 332.886,58.281 
		334.594,48.042 331.248,57.782 327.509,59.263 326.709,62.392 322.356,79.394 321.122,84.218 318.109,83.448 322.308,67.043 
		320.64,66.617 320.878,65.7 316.81,64.663 316.578,65.573 314.982,65.165 310.931,80.993 309.785,79.068 308.969,78.857 
		314.579,56.935 313.843,56.742 313.939,56.365 312.255,55.932 312.156,56.315 310.496,55.888 310.597,55.481 307.282,54.637 
		307.214,55.059 306.475,54.869 299.564,82.211 298.644,80.002 306.713,48.512 306.186,48.379 306.348,47.748 302.96,46.882 
		302.791,47.545 299.797,46.771 299.981,46.053 296.759,45.229 296.576,45.946 295.911,45.778 288.437,74.966 287.119,74.627 
		292.167,54.911 290.745,54.546 290.818,54.252 286.7,53.198 286.627,53.49 285.23,53.133 281.723,66.833 281.07,66.665 
		282.395,61.491 282.091,61.414 282.185,61.045 279.461,60.348 279.358,60.74 279,60.635 276.844,69.055 276.61,68.996 
		279.746,56.742 278.795,56.497 279.246,54.734 275.448,53.762 272.579,55.462 270.58,63.253 268.941,62.829 268.476,62.05 
		271.523,50.144 270.988,50 270.583,48.107 266.381,47.022 265.061,48.396 264.484,48.24 261.507,59.866 260.611,59.639 
		259.718,63.132 259.115,62.98 256.92,71.571 255.051,71.09 256.055,67.171 255.207,66.956 255.941,64.08 253.783,63.529 
		255.002,58.759 254.248,58.568 254.391,58.01 253.225,56.043 253.499,54.965 249.969,54.061 249.681,55.168 248.041,56.142 
		247.845,56.893 246.931,56.66 242.67,73.317 242.342,73.233 242.116,74.114 241.79,74.03 243.828,66.061 243.242,65.217 
		242.953,62.95 240.826,62.406 239.219,63.907 238.566,63.74 235.59,62.983 234.349,67.834 233.267,67.56 232.607,70.138 
		231.558,69.873 232.039,68.009 230.892,67.717 231.194,66.539 228.937,65.961 228.457,67.827 227.575,67.599 227.435,68.156 
		226.552,67.929 226.461,68.287 224.232,67.718 224.402,67.062 224.173,67.006 224.547,65.543 222.192,64.942 221.819,66.401 
		219.859,65.9 219.666,66.654 218.519,66.36 218.945,64.696 217.667,64.367 217.359,65.573 216.311,65.311 216.904,62.99 
		212.786,61.934 212.607,62.629 210.09,61.987 210.308,61.127 208.248,60.599 204.803,127.431 209.994,127.641 217.894,129.771 
		260.28,140.092 285.816,111.774 331.248,169.509 	"/>
	
		<rect x="327.824" y="61.383" transform="matrix(0.9701 0.2427 -0.2427 0.9701 24.8836 -77.8727)" fill="#FFEC00" width="1.344" height="1.348"/>
	
		<rect x="296.075" y="47.872" transform="matrix(0.9705 0.241 -0.241 0.9705 20.4398 -70.0198)" fill="#FFEC00" width="0.758" height="1.349"/>
	
		<rect x="294.259" y="58.673" transform="matrix(0.9704 0.2416 -0.2416 0.9704 23.0695 -69.4328)" fill="#FFEC00" width="0.756" height="1.347"/>
	
		<rect x="300.938" y="60.677" transform="matrix(0.9704 0.2413 -0.2413 0.9704 23.7105 -70.9008)" fill="#1D1D1B" width="0.757" height="1.348"/>
	
		<rect x="299.335" y="52.393" transform="matrix(0.9704 0.2416 -0.2416 0.9704 21.7029 -70.8453)" fill="#1D1D1B" width="0.756" height="1.349"/>
	
		<rect x="295.061" y="68.424" transform="matrix(0.97 0.2431 -0.2431 0.97 25.6668 -69.7605)" fill="#1D1D1B" width="0.755" height="1.347"/>
	
		<rect x="247.343" y="58.54" transform="matrix(0.9701 0.2427 -0.2427 0.9701 21.7872 -58.4247)" fill="#FFEC00" width="1.348" height="1.348"/>
	
		<rect x="329.363" y="73.77" transform="matrix(0.9699 0.2434 -0.2434 0.9699 28.0431 -78.0885)" fill="#FFEC00" width="1.348" height="1.346"/>
	
		<rect x="331.078" y="66.701" transform="matrix(0.9701 0.2427 -0.2427 0.9701 26.2717 -78.5033)" fill="#1D1D1B" width="1.344" height="1.348"/>
	
		<rect x="249.077" y="66.424" transform="matrix(0.9696 0.2447 -0.2447 0.9696 24.0177 -59.0861)" fill="#1D1D1B" width="1.349" height="1.344"/>
	
		<rect x="325.783" y="70.159" transform="matrix(0.9703 0.242 -0.242 0.9703 26.8489 -76.9047)" fill="#1D1D1B" width="1.348" height="1.349"/>
	
		<rect x="325.889" y="79.512" transform="matrix(0.9699 0.2434 -0.2434 0.9699 29.3362 -77.0701)" fill="#1D1D1B" width="1.348" height="1.346"/>
	<g>
		<path fill="#FFEC00" d="M317.717,66.9c0.34,2.479,0.451,2.603,2.402,2.63c-1.922,0.296-2.012,0.437-1.924,2.93
			c-0.34-2.479-0.453-2.604-2.404-2.634C317.715,69.535,317.805,69.399,317.717,66.9z"/>
	</g>
	<g>
		<g>
			<path fill="#FFFFFF" d="M250.18,69.812l-0.011-0.47l-0.356-0.229l-4.085-6.661l0.084-1.644l-0.646,0.014l-2.206-6.882
				l0.527-0.011l-0.014-0.647c0,0,0,0-0.59-0.044c-0.613-1.219-2.252-22.206-2.252-22.206l0.323-0.078l0.091-0.547l-0.486-0.021
				l-0.012-0.585c0,0,0,0,0.469-0.012c-0.144-1.229-0.912-1.39-0.912-1.39l-0.264-4.061l-0.554,0.013c0,0-0.046,3.195-0.027,4.079
				c-0.654,0.344-0.738,1.447-0.738,1.447l0.549-0.014l0.012,0.554l-0.44,0.007l0.124,0.55c0,0,0,0,0.224,0.104
				c0.309,3.96-0.391,22.271-0.391,22.271l-0.658,0.127l0.012,0.661c0,0,0,0,0.551-0.014c-0.098,0.556-1.606,6.979-1.606,6.979
				l-0.552,0.014l0.143,1.54l-3.157,6.681l-0.656,0.235l0.014,0.552l3.523-0.003c0,0-0.153-1.522,0.073-2
				c0.889-2.25,2.21-3.513,5.382-3.583c3.168-0.07,4.277,2.313,4.645,3.011c0.369,0.695,0.229,2.345,0.229,2.345L250.18,69.812z
				 M238.716,61.259l0.755-5.717l2.35-0.05l1.121,5.61L238.716,61.259z"/>
		</g>
	</g>
	<g>
		<path fill="#FFEC00" d="M238.73,48.172c0.187,1.349,0.248,1.417,1.308,1.432c-1.046,0.161-1.094,0.236-1.046,1.593
			c-0.185-1.348-0.246-1.416-1.309-1.432C238.73,49.606,238.78,49.532,238.73,48.172z"/>
	</g>
	<g>
		<path fill="#FFEC00" d="M241.154,43.011c0.186,1.349,0.248,1.417,1.307,1.432c-1.045,0.161-1.094,0.236-1.045,1.593
			c-0.186-1.348-0.246-1.416-1.31-1.432C241.154,44.445,241.203,44.371,241.154,43.011z"/>
	</g>
	<g>
		<path fill="#FFEC00" d="M238.823,39.214c0.187,1.348,0.248,1.416,1.308,1.432c-1.046,0.161-1.094,0.236-1.046,1.593
			c-0.185-1.349-0.246-1.417-1.31-1.432C238.823,40.648,238.873,40.574,238.823,39.214z"/>
	</g>
	<g>
		<path fill="#FFEC00" d="M240.721,33.086c0.187,1.348,0.248,1.416,1.308,1.432c-1.046,0.16-1.094,0.235-1.046,1.593
			c-0.185-1.349-0.246-1.417-1.31-1.433C240.721,34.52,240.771,34.446,240.721,33.086z"/>
	</g>
</g>
<g>
	<g>
		<path fill="#E20613" d="M369.652,227.854V134h14.605l34.163,79.883L452.456,134h14.604v93.854h-9.397v-83.566l-35.306,83.566
			h-8.129l-35.179-83.566v83.566H369.652z"/>
		<path fill="#E20613" d="M551.768,196.231h-62.864c0.422,7.619,3.81,13.887,10.16,18.795c4.994,3.896,10.623,5.843,16.891,5.843
			c7.703,0,14.18-2.794,19.431-8.382c2.115-2.201,3.725-4.699,4.826-7.493h9.779c-1.778,5.419-5.166,10.499-10.16,15.239
			c-6.604,6.182-14.479,9.271-23.622,9.271c-10.668,0-19.559-3.766-26.67-11.303c-6.689-7.027-10.033-15.494-10.033-25.4
			c0-10.497,3.725-19.26,11.176-26.289c6.858-6.519,15.154-9.779,24.893-9.779c10.074,0,18.625,3.473,25.653,10.414
			c2.286,2.287,4.233,4.826,5.843,7.621C550.201,180.272,551.768,187.426,551.768,196.231z M489.158,187.721h53.213
			c-2.203-9.566-7.239-16.17-15.113-19.812c-3.556-1.692-7.493-2.54-11.811-2.54c-8.637,0-15.538,3.302-20.701,9.906
			C491.951,178.831,490.088,182.981,489.158,187.721z"/>
		<path fill="#E20613" d="M633.175,134v93.854h-9.398V215.28c-5.673,8.129-12.699,12.742-21.082,13.844
			c-1.694,0.254-3.473,0.381-5.334,0.381c-11.261,0-20.573-3.811-27.939-11.43c-6.604-6.858-9.906-15.154-9.906-24.893
			c0-10.836,3.852-19.768,11.557-26.797c6.941-6.434,15.409-9.652,25.4-9.652c11.176,0,20.276,4.235,27.305,12.701V134H633.175z
			 M596.218,165.369c-8.299,0-15.157,3.133-20.574,9.398c-4.403,5.164-6.604,11.176-6.604,18.033c0,8.807,3.216,15.961,9.651,21.463
			c5.249,4.404,11.387,6.604,18.415,6.604c8.043,0,14.773-3.132,20.193-9.397c4.572-5.334,6.857-11.514,6.857-18.543
			c0-8.297-3.175-15.196-9.524-20.701C609.382,167.655,603.244,165.369,596.218,165.369z"/>
		<path fill="#FFFFFF" d="M646.636,150.002V134h9.398v16.002H646.636z"/>
		<path fill="#E20613" d="M740.235,158.384v69.47h-9.398v-12.192c-5.588,7.451-12.064,11.854-19.431,13.208
			c-2.286,0.422-4.743,0.635-7.366,0.635c-11.43,0-20.701-3.893-27.812-11.684c-6.267-6.688-9.398-14.859-9.398-24.512
			c0-11.005,3.852-20.065,11.557-27.178c6.858-6.265,15.196-9.398,25.02-9.398c11.091,0,19.896,4.191,26.416,12.574l1.016,1.396
			v-12.319H740.235z M703.659,165.369c-8.299,0-15.156,3.133-20.574,9.398c-3.473,3.895-5.588,8.426-6.35,13.588
			c-0.254,1.441-0.381,2.88-0.381,4.318c0,8.891,3.216,16.088,9.651,21.59c5.164,4.404,11.218,6.604,18.161,6.604
			c8.297,0,15.069-3.217,20.32-9.652c4.232-5.163,6.35-11.303,6.35-18.415c0-8.636-3.175-15.662-9.524-21.082
			C716.315,167.487,710.431,165.369,703.659,165.369z"/>
	</g>
	<rect x="646.636" y="159.384" fill="#E20613" width="9.398" height="69.47"/>
	<circle fill="#FFFFFF" cx="596.422" cy="193.197" r="8.078"/>
	<circle fill="#FFFFFF" cx="704.422" cy="193.197" r="8.078"/>
</g>
</svg>
